<svg id="Layer_1" data-name="Layer 1" xmlns="http://www.w3.org/2000/svg" viewBox="0 0 325 274"><defs><style>.cls-1{fill:#f6673e;}</style></defs><path class="cls-1" d="M258.67,184.3H76.89a3.37,3.37,0,1,1,0-6.73H258.67a3.37,3.37,0,1,1,0,6.73Z"/><path class="cls-1" d="M126.54,165.19a3.36,3.36,0,0,1-3.36-3.37V74.62H97.93v87.2a3.37,3.37,0,1,1-6.73,0V71.25a3.36,3.36,0,0,1,3.36-3.37h32a3.37,3.37,0,0,1,3.37,3.37v90.57A3.37,3.37,0,0,1,126.54,165.19Z"/><path class="cls-1" d="M183.77,165.19a3.36,3.36,0,0,1-3.36-3.37V61.15H155.16V161.82a3.37,3.37,0,0,1-6.74,0v-104a3.36,3.36,0,0,1,3.37-3.36h32a3.36,3.36,0,0,1,3.37,3.36v104A3.37,3.37,0,0,1,183.77,165.19Z"/><path class="cls-1" d="M209,165.19a3.37,3.37,0,0,1-3.37-3.37V44.32A3.37,3.37,0,0,1,209,41h32a3.37,3.37,0,0,1,3.37,3.37V68.16a3.37,3.37,0,0,1-6.74,0V47.68H212.39V161.82A3.37,3.37,0,0,1,209,165.19Z"/><path class="cls-1" d="M241,142.65a3.37,3.37,0,0,1-3.37-3.37v-10.1a3.37,3.37,0,0,1,6.74,0v10.1A3.37,3.37,0,0,1,241,142.65Z"/><path class="cls-1" d="M241,115.57a3.36,3.36,0,0,1-3.37-3.36v-17a3.37,3.37,0,0,1,6.74,0v17A3.36,3.36,0,0,1,241,115.57Z"/><path class="cls-1" d="M241,81.63a3.37,3.37,0,0,1-3.37-3.37V68.16a3.37,3.37,0,0,1,6.74,0v10.1A3.37,3.37,0,0,1,241,81.63Z"/><path class="cls-1" d="M241,165.19a3.37,3.37,0,0,1-3.37-3.37V139.28a3.37,3.37,0,1,1,6.74,0v22.54A3.37,3.37,0,0,1,241,165.19Z"/></svg>