<svg id="Layer_1" data-name="Layer 1" xmlns="http://www.w3.org/2000/svg" viewBox="0 0 325 274"><defs><style>.cls-1{fill:#f6673e;}</style></defs><g id="Group_8772" data-name="Group 8772"><g id="Group_9082" data-name="Group 9082"><path id="Path_17208" data-name="Path 17208" class="cls-1" d="M148.06,89.4c2-2.32,3.8-4.61,5.79-6.74a37.6,37.6,0,0,1,45.63-8.52,45,45,0,0,1,26.5,45.3,46.4,46.4,0,0,1-9.21,22.22,176.83,176.83,0,0,1-22.35,25.39q-21.46,21.09-43.11,42a4,4,0,0,1-6.55,0c-16.72-16.38-33.48-32.71-50.08-49.21a127.62,127.62,0,0,1-18.55-23.14A44.36,44.36,0,0,1,105.3,71.16a38.22,38.22,0,0,1,41.05,16.3c.4.51.78,1,1.19,1.54A2.88,2.88,0,0,0,148.06,89.4ZM148,201.07c.46-.39.74-.64,1.05-.92,14.74-14.42,29.68-28.69,44.23-43.35a228.17,228.17,0,0,0,17.24-20.15A33.48,33.48,0,0,0,218.23,117,36.5,36.5,0,0,0,202.75,85.1a32.31,32.31,0,0,0-40.93.18A72.15,72.15,0,0,0,152,96.94c-2.55,3.4-5.42,3.59-7.69.06-.57-.89-1.12-1.8-1.72-2.67a32.62,32.62,0,0,0-32.34-16A38,38,0,0,0,77.79,114a38,38,0,0,0,7.85,22.81,189.13,189.13,0,0,0,24.16,27c12.61,12.37,25.33,24.69,38.2,37.21Z"/></g></g></svg>