<svg id="Layer_1" data-name="Layer 1" xmlns="http://www.w3.org/2000/svg" viewBox="0 0 595.28 620.4"><defs><style>.cls-1{fill:#4782be;}</style></defs><path class="cls-1" d="M274.85,261.11a22.38,22.38,0,1,1,22.36-22.43,22.23,22.23,0,0,1-22.36,22.43Zm0-34.7a12.33,12.33,0,0,0-12.33,12.35,12.33,12.33,0,1,0,12.33-12.35Z"/><path class="cls-1" d="M235.41,333.16a5,5,0,0,1-5-5l-.11-29.64a29,29,0,0,1,25.65-28.9,162.09,162.09,0,0,1,19-.67,161.44,161.44,0,0,1,18.91.58,29,29,0,0,1,25.79,28.78l.1,29.63a5,5,0,0,1-10,0l-.11-29.64a19,19,0,0,0-16.85-18.82A150.81,150.81,0,0,0,275,279a155.05,155.05,0,0,0-17.87.61,19,19,0,0,0-16.77,18.9l.1,29.62a5,5,0,0,1-5,5Z"/><path class="cls-1" d="M273.63,377.12a95.13,95.13,0,1,1,67.29-27.83A94.89,94.89,0,0,1,273.63,377.12Zm0-180.25a85.14,85.14,0,1,0,60.19,24.93A84.62,84.62,0,0,0,273.63,196.87Z"/><path class="cls-1" d="M286.16,169.81a4.89,4.89,0,0,1-.54,0,114.36,114.36,0,0,0-12-.63,5,5,0,1,1,0-10.05,123.74,123.74,0,0,1,13.05.7,5,5,0,0,1-.52,10Z"/><path class="cls-1" d="M384.89,248.05a5,5,0,0,1-4.74-3.37,111.44,111.44,0,0,0-8.83-19.23,5,5,0,1,1,8.69-5,122.78,122.78,0,0,1,9.63,21,5,5,0,0,1-3.09,6.39A5.08,5.08,0,0,1,384.89,248.05Zm-22.08-38.11a5,5,0,0,1-3.8-1.74c-1.77-2-3.64-4-5.59-6a114.7,114.7,0,0,0-9.71-8.66,5,5,0,0,1,6.25-7.87,126.51,126.51,0,0,1,10.56,9.42q3.19,3.19,6.08,6.54a5,5,0,0,1-.51,7.08A5,5,0,0,1,362.81,209.94ZM328.3,182.56A4.87,4.87,0,0,1,326,182a113.33,113.33,0,0,0-19.61-8,5,5,0,1,1,2.92-9.61,123.31,123.31,0,0,1,21.35,8.72,5,5,0,0,1-2.34,9.47Z"/><path class="cls-1" d="M391.39,282.09a5,5,0,0,1-5-4.81,115.41,115.41,0,0,0-1.14-12,5,5,0,1,1,9.94-1.47,127.34,127.34,0,0,1,1.23,13,5,5,0,0,1-4.81,5.22Z"/><path class="cls-1" d="M273.63,404.88a122.89,122.89,0,0,1,0-245.78,5,5,0,0,1,0,10.05A112.84,112.84,0,1,0,386.38,277.28a5,5,0,0,1,4.81-5.23,5.07,5.07,0,0,1,5.22,4.82,122.89,122.89,0,0,1-122.78,128Z"/><path class="cls-1" d="M344.07,408.65a20.7,20.7,0,0,1-14.65-6.06l-10-10a5,5,0,0,1,1.45-8.12,113.23,113.23,0,0,0,55.24-55.24,5,5,0,0,1,8.11-1.45l10,10a20.73,20.73,0,0,1,0,29.28l-35.52,35.52A20.68,20.68,0,0,1,344.07,408.65Zm-12.59-18.21,5,5.05a10.68,10.68,0,0,0,15.09,0L387.13,360a10.69,10.69,0,0,0,0-15.08l-5.05-5.05a123.51,123.51,0,0,1-50.6,50.6Z"/><path class="cls-1" d="M425.59,461.3a27.3,27.3,0,0,1-19.34-8l-52.68-52.68a5,5,0,0,1,0-7.1l31.58-31.58a5,5,0,0,1,7.11,0l52.67,52.68a27.34,27.34,0,0,1-19.34,46.68Zm-61.36-64.23,49.13,49.13a17.31,17.31,0,1,0,24.47-24.48L388.7,372.59Z"/><path class="cls-1" d="M377.38,422.34a5,5,0,0,1-3.55-8.57l31.57-31.58a5,5,0,0,1,7.1,7.11l-31.57,31.57A5,5,0,0,1,377.38,422.34Z"/><path class="cls-1" d="M257.34,333.16a5,5,0,0,1-5-5V313.05a5,5,0,0,1,10.05,0v15.09A5,5,0,0,1,257.34,333.16Z"/><path class="cls-1" d="M292.7,333.16a5,5,0,0,1-5-5V313.05a5,5,0,0,1,10,0v15.09A5,5,0,0,1,292.7,333.16Z"/></svg>