<svg id="Layer_1" data-name="Layer 1" xmlns="http://www.w3.org/2000/svg" viewBox="0 0 325 274"><defs><style>.cls-1{fill:#f6673e;}</style></defs><path id="icon-2" class="cls-1" d="M235,92.05H198V88a12.25,12.25,0,0,0-12.23-12.24H153.17A12.26,12.26,0,0,0,140.93,88V92h-37a4.08,4.08,0,0,0-4.08,4.07v89.75a12.26,12.26,0,0,0,12.24,12.23H226.85a12.25,12.25,0,0,0,12.23-12.23V96.19a4,4,0,0,0-3.78-4.14Zm-86-4.09a4.09,4.09,0,0,1,4.08-4.07h32.63A4.08,4.08,0,0,1,189.84,88V92H149.06Zm80.28,12.24-12.66,38A4,4,0,0,1,212.8,141H189.86v-4.08a4.07,4.07,0,0,0-4.07-4.07H153.17a4.08,4.08,0,0,0-4.08,4.07V141h-23a4,4,0,0,1-3.87-2.79l-12.67-38ZM181.7,141v8.19H157.19V141Zm49.22,44.87a4.08,4.08,0,0,1-4.07,4.08H112.08a4.1,4.1,0,0,1-4.08-4.08V121.27l6.51,19.53a12.23,12.23,0,0,0,11.61,8.37h22.95v4a4.08,4.08,0,0,0,4.08,4.08h32.63a4.08,4.08,0,0,0,4.07-4.08v-4h23a12.23,12.23,0,0,0,11.61-8.37l6.51-19.53Z"/></svg>