<svg id="Layer_1" data-name="Layer 1" xmlns="http://www.w3.org/2000/svg" viewBox="0 0 595.28 620.4"><defs><style>.cls-1{fill:#4782be;}</style></defs><path class="cls-1" d="M279.13,256.85a25,25,0,1,1,25-25A25,25,0,0,1,279.13,256.85Zm0-38.62a13.63,13.63,0,1,0,13.62,13.62A13.64,13.64,0,0,0,279.13,218.23Z"/><path class="cls-1" d="M320.44,316.14a5.68,5.68,0,0,1-5.68-5.69V288.14a15.24,15.24,0,0,0-15.22-15.22H258.72a15.24,15.24,0,0,0-15.22,15.22v22.31a5.69,5.69,0,1,1-11.37,0V288.14a26.62,26.62,0,0,1,26.59-26.58h40.82a26.61,26.61,0,0,1,26.58,26.58v22.31A5.68,5.68,0,0,1,320.44,316.14Z"/><path class="cls-1" d="M261.33,316.14a5.68,5.68,0,0,1-5.68-5.69v-8a5.69,5.69,0,1,1,11.37,0v8A5.69,5.69,0,0,1,261.33,316.14Z"/><path class="cls-1" d="M296.93,316.14a5.68,5.68,0,0,1-5.69-5.69v-8a5.69,5.69,0,1,1,11.37,0v8A5.68,5.68,0,0,1,296.93,316.14Z"/><path class="cls-1" d="M354.43,337.46H203.82a5.69,5.69,0,0,1,0-11.37H354.43a5.69,5.69,0,0,1,0,11.37Z"/><path class="cls-1" d="M354.43,367.3H203.82a5.69,5.69,0,0,1,0-11.37H354.43a5.69,5.69,0,0,1,0,11.37Z"/><path class="cls-1" d="M371.11,397.13H203.82a5.68,5.68,0,0,1,0-11.36H371.11a5.68,5.68,0,1,1,0,11.36Z"/><path class="cls-1" d="M338.49,427H203.82a5.68,5.68,0,0,1,0-11.36H338.49a5.68,5.68,0,1,1,0,11.36Z"/><path class="cls-1" d="M335.5,456.81H203.82a5.69,5.69,0,0,1,0-11.37H335.5a5.69,5.69,0,0,1,0,11.37Z"/><path class="cls-1" d="M367.53,495.29H171.62a5.68,5.68,0,0,1-5.68-5.68V193.13a5.68,5.68,0,0,1,5.68-5.68h215a5.68,5.68,0,0,1,5.68,5.68v196a5.68,5.68,0,0,1-5.68,5.69,46.39,46.39,0,0,0-17,89.55,5.68,5.68,0,0,1-2.08,11ZM177.31,483.93H347.74A57.79,57.79,0,0,1,381,383.69V198.82H177.31Z"/><path class="cls-1" d="M386.64,499a57.78,57.78,0,1,1,57.77-57.78A57.85,57.85,0,0,1,386.64,499Zm0-104.18a46.41,46.41,0,1,0,46.41,46.4A46.45,46.45,0,0,0,386.64,394.78Z"/><path class="cls-1" d="M381.41,468.53a5.7,5.7,0,0,1-4.59-2.33l-20.24-27.71a5.68,5.68,0,1,1,9.18-6.7l15.76,21.58,24.33-31.67a5.68,5.68,0,1,1,9,6.93l-28.94,37.68A5.69,5.69,0,0,1,381.41,468.53Z"/><path class="cls-1" d="M410.36,400.53a5.63,5.63,0,0,1-2.59-.63,45.92,45.92,0,0,0-21.13-5.12,5.69,5.69,0,0,1-5.69-5.69V198.82H195.34a5.68,5.68,0,0,1-5.68-5.69V172.06a5.68,5.68,0,0,1,5.68-5.68h215a5.68,5.68,0,0,1,5.68,5.68V394.84a5.7,5.7,0,0,1-5.68,5.69Zm-18-16.84a56.61,56.61,0,0,1,12.35,2.62V177.74H201v9.71H386.64a5.68,5.68,0,0,1,5.68,5.68Z"/></svg>