<svg id="Layer_1" data-name="Layer 1" xmlns="http://www.w3.org/2000/svg" viewBox="0 0 595.28 620.4"><defs><style>.cls-1{fill:#4782be;}</style></defs><path class="cls-1" d="M447.56,338.56a5.09,5.09,0,0,1-5.09-5.09V323.29a5.09,5.09,0,1,1,10.18,0v10.18A5.09,5.09,0,0,1,447.56,338.56Z"/><path class="cls-1" d="M447.56,374.62a5.09,5.09,0,0,1-5.09-5.09v-18a5.09,5.09,0,0,1,10.18,0v18A5.09,5.09,0,0,1,447.56,374.62Z"/><path class="cls-1" d="M447.56,402.83a5.09,5.09,0,0,1-5.09-5.09V387.56a5.09,5.09,0,0,1,10.18,0v10.18A5.09,5.09,0,0,1,447.56,402.83Z"/><path class="cls-1" d="M432.16,452.64h-269a20.52,20.52,0,0,1-20.49-20.5V251.41a20.51,20.51,0,0,1,20.49-20.49H432.16a20.51,20.51,0,0,1,20.49,20.49v71.88a5.09,5.09,0,0,1-10.18,0V251.41a10.32,10.32,0,0,0-10.31-10.31h-269a10.32,10.32,0,0,0-10.31,10.31V432.14a10.33,10.33,0,0,0,10.31,10.32H432.16a10.32,10.32,0,0,0,10.31-10.32v-34.4a5.09,5.09,0,1,1,10.18,0v34.4A20.52,20.52,0,0,1,432.16,452.64Z"/><path class="cls-1" d="M337.45,324.79H257.82a96.83,96.83,0,0,1-38.9-8.1l-73.24-31.86a5.09,5.09,0,1,1,4.06-9.34L223,307.36a86.83,86.83,0,0,0,34.83,7.25h79.63a86.84,86.84,0,0,0,34.84-7.25l73.24-31.87a5.09,5.09,0,1,1,4.06,9.34l-73.24,31.86A96.83,96.83,0,0,1,337.45,324.79Z"/><path class="cls-1" d="M373.37,241.1H221.91a5.09,5.09,0,0,1-5.1-5.09V183a15.29,15.29,0,0,1,15.28-15.27h131.1A15.29,15.29,0,0,1,378.46,183v53A5.09,5.09,0,0,1,373.37,241.1ZM227,230.92H368.28V183a5.1,5.1,0,0,0-5.09-5.09H232.09A5.1,5.1,0,0,0,227,183Z"/><path class="cls-1" d="M346,241.1h-96.7A5.09,5.09,0,0,1,244.2,236V201.56a10.19,10.19,0,0,1,10.18-10.18H340.9a10.2,10.2,0,0,1,10.18,10.18V236A5.09,5.09,0,0,1,346,241.1Zm-91.61-10.18H340.9V201.56H254.38Z"/><path class="cls-1" d="M309.35,371.77H285.93a15.29,15.29,0,0,1-15.27-15.27V319.7a5.09,5.09,0,0,1,5.09-5.09h43.78a5.09,5.09,0,0,1,5.09,5.09v36.8A15.29,15.29,0,0,1,309.35,371.77Zm-28.51-47V356.5a5.09,5.09,0,0,0,5.09,5.09h23.42a5.1,5.1,0,0,0,5.09-5.09V324.79Z"/><path class="cls-1" d="M318.57,348.28H276.7a5.09,5.09,0,0,1,0-10.18h41.87a5.09,5.09,0,1,1,0,10.18Z"/><path class="cls-1" d="M244.12,424.53H180.59a11.27,11.27,0,0,1-11.26-11.26V343.19a5.1,5.1,0,0,1,10.19,0v70.08a1.07,1.07,0,0,0,1.07,1.08h63.53a5.09,5.09,0,1,1,0,10.18Z"/></svg>