<svg id="Layer_1" data-name="Layer 1" xmlns="http://www.w3.org/2000/svg" viewBox="0 0 595.28 620.4"><defs><style>.cls-1{fill:#4782be;}</style></defs><path class="cls-1" d="M330.22,442.85H235.45a6.16,6.16,0,0,1-6.16-6.17v-1c0-30.37-12.71-60-35.79-83.56-27.65-28.19-40.18-67-34.38-106.47,8.06-54.9,54.06-99.23,109.38-105.39,36.14-4,70.86,7,97.74,31.05a125.06,125.06,0,0,1,5,181.72c-22.5,22.46-34.89,51.27-34.89,81.09v2.56A6.16,6.16,0,0,1,330.22,442.85Zm-88.71-12.33h82.6c.95-31.82,14.52-62.31,38.45-86.22A112.73,112.73,0,0,0,358,180.5c-24.23-21.68-55.51-31.63-88.16-28C220,158.06,178.57,198,171.31,247.45c-5.23,35.62,6.06,70.62,31,96C226.36,368,240.16,398.73,241.51,430.52Z"/><path class="cls-1" d="M374.69,276.79a6.16,6.16,0,0,1-6.17-6.16,86.6,86.6,0,0,0-1.19-14.33,6.17,6.17,0,0,1,12.16-2.05,99.38,99.38,0,0,1,1.36,16.38A6.16,6.16,0,0,1,374.69,276.79Z"/><path class="cls-1" d="M367.74,241.69a6.15,6.15,0,0,1-5.69-3.8,85.83,85.83,0,0,0-9.27-16.78A6.16,6.16,0,0,1,362.84,214a97.5,97.5,0,0,1,10.59,19.18,6.16,6.16,0,0,1-5.69,8.52Z"/><path class="cls-1" d="M344.12,208.37A6.13,6.13,0,0,1,340,206.8a87.15,87.15,0,0,0-11.47-8.67,6.16,6.16,0,1,1,6.6-10.41,99.86,99.86,0,0,1,13.09,9.89,6.17,6.17,0,0,1-4.11,10.76Z"/><path class="cls-1" d="M322.35,505.52h-79A31.46,31.46,0,0,1,211.9,474.1v-29a14.6,14.6,0,0,1,14.58-14.58H339.19a14.6,14.6,0,0,1,14.59,14.58v29A31.46,31.46,0,0,1,322.35,505.52Zm-95.87-62.67a2.26,2.26,0,0,0-2.26,2.25v29a19.12,19.12,0,0,0,19.1,19.1h79a19.12,19.12,0,0,0,19.1-19.1v-29a2.26,2.26,0,0,0-2.26-2.25Z"/><path class="cls-1" d="M292.35,474.18H218.06a6.16,6.16,0,0,1,0-12.32h74.29a6.16,6.16,0,0,1,0,12.32Z"/><path class="cls-1" d="M337.56,400H227.71a6.17,6.17,0,1,1,0-12.33H337.56a6.17,6.17,0,1,1,0,12.33Z"/><path class="cls-1" d="M282.84,235.08a30.86,30.86,0,1,1,30.85-30.86A30.9,30.9,0,0,1,282.84,235.08Zm0-49.39a18.53,18.53,0,1,0,18.53,18.53A18.56,18.56,0,0,0,282.84,185.69Z"/><path class="cls-1" d="M336.54,335.66a6.16,6.16,0,0,1-6.16-6.17v-39a31.73,31.73,0,0,0-20.15-29.41,3,3,0,0,0-3.05.42,37.7,37.7,0,0,1-48.69,0,3,3,0,0,0-3-.42,31.73,31.73,0,0,0-20.17,29.41v39a6.16,6.16,0,1,1-12.32,0v-39a44.14,44.14,0,0,1,28-40.91,15.33,15.33,0,0,1,15.52,2.56,25.29,25.29,0,0,0,32.65,0,15.35,15.35,0,0,1,15.51-2.56,44.14,44.14,0,0,1,28,40.91v39A6.16,6.16,0,0,1,336.54,335.66Z"/><path class="cls-1" d="M259.28,335.66a6.17,6.17,0,0,1-6.17-6.17V299.54a6.17,6.17,0,0,1,12.33,0v29.95A6.16,6.16,0,0,1,259.28,335.66Z"/><path class="cls-1" d="M306.39,335.66a6.16,6.16,0,0,1-6.16-6.17V299.54a6.16,6.16,0,0,1,12.32,0v29.95A6.16,6.16,0,0,1,306.39,335.66Z"/></svg>