<svg id="Layer_1" data-name="Layer 1" xmlns="http://www.w3.org/2000/svg" viewBox="0 0 595.28 620.4"><defs><style>.cls-1{fill:#4782be;}</style></defs><path class="cls-1" d="M288.08,487.47a5.72,5.72,0,0,1-5.72-5.71V445a16.58,16.58,0,0,0-14.43-16.41l-16.37-2.1a28,28,0,0,1-24.41-27.74V359.18l-20.15.19a11.24,11.24,0,0,1-9.77-16.78l18.05-31.83a118.16,118.16,0,0,0,15.36-58.21c0-34.07,15.49-66.19,41.44-85.92a122,122,0,0,1,194.8,81.18c5,38.94-8.24,76.78-36.24,103.82A58.37,58.37,0,0,0,412.36,394V398a5.72,5.72,0,0,1-11.43,0V394a70.66,70.66,0,0,1,21.77-50.57c25.38-24.52,37.35-58.83,32.84-94.16-6.17-48.42-45.73-88.36-94.05-94.95A110.51,110.51,0,0,0,279,175.73c-23.11,17.58-36.92,46.3-36.92,76.82a129.66,129.66,0,0,1-16.84,63.85l-18.06,31.83,20.17-.29a11.25,11.25,0,0,1,11.24,11.24v39.59A16.58,16.58,0,0,0,253,415.18l16.37,2.1A28,28,0,0,1,293.79,445v36.74A5.71,5.71,0,0,1,288.08,487.47Z"/><path class="cls-1" d="M406.79,487.47a5.71,5.71,0,0,1-5.71-5.71l0-14.28a5.71,5.71,0,1,1,11.42,0l0,14.29a5.72,5.72,0,0,1-5.71,5.72Z"/><path class="cls-1" d="M406.74,454.8a5.71,5.71,0,0,1-5.72-5.7l0-18.39a5.72,5.72,0,0,1,11.43,0l0,18.38a5.7,5.7,0,0,1-5.7,5.72Z"/><path class="cls-1" d="M406.67,418a5.71,5.71,0,0,1-5.71-5.71l0-14.28a5.72,5.72,0,0,1,11.43,0l0,14.29a5.72,5.72,0,0,1-5.7,5.72Z"/><path class="cls-1" d="M188.48,487.47a5.72,5.72,0,0,1-5.71-5.72l.15-87.8a58.4,58.4,0,0,0-18.28-42.32c-28-27-41.21-64.88-36.25-103.82A122,122,0,0,1,323.2,166.63c25.94,19.73,41.44,51.85,41.43,85.92A118.16,118.16,0,0,0,380,310.76l18.06,31.83a11.24,11.24,0,0,1-9.78,16.78H367.93l.2,39.4a28,28,0,0,1-24.42,27.74l-16.37,2.1A16.58,16.58,0,0,0,312.91,445v36.74a5.72,5.72,0,0,1-11.43,0V445a28,28,0,0,1,24.41-27.74l16.37-2.1a16.59,16.59,0,0,0,14.44-16.41V359.18a11.25,11.25,0,0,1,11.23-11.24h20.34l-18.22-31.55a129.6,129.6,0,0,1-16.85-63.84c0-30.52-13.8-59.24-36.92-76.82a110.58,110.58,0,0,0-82.49-21.43c-48.32,6.59-87.88,46.53-94.06,94.95-4.5,35.33,7.47,69.65,32.84,94.16A70.71,70.71,0,0,1,194.35,394l-.15,87.8A5.72,5.72,0,0,1,188.48,487.47Z"/><path class="cls-1" d="M442.39,487.47H152.89a5.72,5.72,0,1,1,0-11.43h289.5a5.72,5.72,0,0,1,0,11.43Z"/></svg>