<svg id="Layer_1" data-name="Layer 1" xmlns="http://www.w3.org/2000/svg" viewBox="0 0 1125 274"><defs><style>.cls-1{fill:#005ebf;}.cls-2{fill:#f9562b;}.cls-3{fill:none;stroke:#005ebf;stroke-miterlimit:10;}.cls-4{fill:#fc3600;}.cls-5{fill:#f8673e;}.cls-6{fill:#f7572b;}</style></defs><path class="cls-1" d="M422.29,164.4l12.42-14.91c5.24,7,11,10.63,17.94,10.63,9,0,13.67-5.38,13.67-16v-46h-34v-18h56.18v62.67c0,23.88-12,35.61-34.78,35.61C440.78,178.48,429.33,173.51,422.29,164.4Z"/><path class="cls-1" d="M574.81,134.45v42.37H554.66v-9.25c-4,6.77-11.73,10.36-22.64,10.36-17.39,0-27.74-9.67-27.74-22.5,0-13.11,9.25-22.23,31.88-22.23h17.12c0-9.24-5.52-14.62-17.12-14.62-7.87,0-16,2.62-21.39,6.9l-7.73-15c8.14-5.8,20.15-9,32-9C561.7,101.46,574.81,112,574.81,134.45Zm-21.53,18.91v-7.59H538.51c-10.08,0-13.25,3.72-13.25,8.69,0,5.38,4.55,9,12.14,9C544.58,163.43,550.79,160.12,553.28,153.36Z"/><path class="cls-1" d="M670.19,134.31v42.51H648.66v-39.2c0-12-5.52-17.53-15-17.53-10.35,0-17.8,6.35-17.8,20v36.71H594.28V74.41h21.53v35.88c5.8-5.79,14.08-8.83,23.6-8.83C656.94,101.46,670.19,111.67,670.19,134.31Z"/><path class="cls-1" d="M750.8,160.26v16.56H684.55v-13l37.82-44.72H685.52V102.56h64v13l-37.82,44.72Z"/><path class="cls-1" d="M836,145.77H779.8c2.07,9.24,9.93,14.9,21.25,14.9,7.87,0,13.53-2.34,18.64-7.17l11.45,12.42c-6.9,7.87-17.25,12-30.64,12-25.67,0-42.37-16.15-42.37-38.24s17-38.23,39.61-38.23c21.81,0,38.65,14.63,38.65,38.51C836.39,141.62,836.11,144,836,145.77ZM779.52,133.2H816.1c-1.52-9.38-8.56-15.45-18.22-15.45S781,123.68,779.52,133.2Z"/><path class="cls-1" d="M923.08,145.77H866.9c2.07,9.24,9.94,14.9,21.25,14.9,7.87,0,13.53-2.34,18.64-7.17l11.45,12.42c-6.9,7.87-17.25,12-30.64,12-25.67,0-42.37-16.15-42.37-38.24s17-38.23,39.61-38.23c21.81,0,38.65,14.63,38.65,38.51C923.49,141.62,923.21,144,923.08,145.77ZM866.62,133.2H903.2c-1.52-9.38-8.56-15.45-18.22-15.45S868.14,123.68,866.62,133.2Z"/><path class="cls-1" d="M1013.76,134.31v42.51H992.23v-39.2c0-12-5.52-17.53-15-17.53-10.36,0-17.81,6.35-17.81,20v36.71H937.85V102.56h20.57v8.7c5.79-6.35,14.49-9.8,24.56-9.8C1000.51,101.46,1013.76,111.67,1013.76,134.31Z"/><path class="cls-2" d="M196.48,95.16a86.51,86.51,0,0,1,24.39-31.58q-.06-8.26-.06-16.58H157.33V69.39h39.19C196.52,78.31,196.49,86.82,196.48,95.16Z"/><path class="cls-1" d="M332.21,186c-42.38,35.8-93,20.06-115.09-8.06-24.87-31.64-22.87-77.34,5-105,29.54-29.28,74.34-31.42,106.8-4.73,29.65,24.39,39.65,73.78,8.74,112,3.39,3.43,5.59,8.28,11.77,8.15,1.43,0,3.1,1.52,4.31,2.7q10,9.74,19.72,19.67c5.11,5.23,5.07,8.58.14,13.38-4.38,4.26-7.73,3.89-12.94-1.34-6.3-6.33-12.83-12.44-18.87-19-1.79-1.94-2.05-5.21-3.39-7.67C336.63,192.73,334.47,189.58,332.21,186Zm17.44-57.77A71.34,71.34,0,0,0,278,56.5c-39.11-.08-71.71,32.35-71.8,71.42S238.74,200,277.46,200C317.79,199.94,349.62,168.29,349.65,128.19Z"/><path class="cls-2" d="M111.46,143.08h23.2c1.31,14.92,5.2,28.43,21.76,32.24,16.74,3.86,31.92,1.5,41.87-15.24l12.55,22.8c-13.29,16.86-43.73,22.55-67.92,12.71C122.07,187.12,109.36,166.2,111.46,143.08Z"/><path class="cls-1" d="M284.14,137.59c.45-.53,1.91-.55,2.77-.31,11.86,3.27,20,10.6,22.51,22.77,1.05,5.07.17,10.54.17,15.82h.26c0,4.28-.18,8.57.06,12.83.16,2.83-1.06,4.26-3.44,5.36a62.19,62.19,0,0,1-21.62,6c-12.64.89-25-.19-36.69-5.69-2.87-1.34-4.2-3-4.1-6.23.22-7.23,0-14.46.07-21.69.06-13.81,7.59-24.19,20.66-28.54"/><path class="cls-1" d="M286.67,113.59c-10,6.31-28.36,2-29.4,1.79.67,9.06,8.11,18.23,19.48,18.15s19.8-8.41,19.79-19.83C293,114.31,286.67,113.59,286.67,113.59Z"/><line class="cls-3" x1="396.48" y1="111.53" x2="396.48" y2="178.48"/><g id="Group_11455" data-name="Group 11455"><path id="Path_44386" data-name="Path 44386" class="cls-4" d="M260.49,105.11s-4.07-1.4-3.8-3.8c0,0-.81-12.85,6.93-16,0,0,8.59-3.72,16.16-.79"/><path id="Path_44387" data-name="Path 44387" class="cls-5" d="M280.86,110.31s12.81,1.65,14.42-.15c0,0,3-8.72.93-15.62a11.79,11.79,0,0,0-6.65-7.17c-2.93-1.33-7.52-3.17-9.79-2.84Z"/><path id="Path_44388" data-name="Path 44388" class="cls-6" d="M279.78,84.53s7.21,2.61,1.08,25.78c0,0-15.26-2.76-20.37-5.2C260.49,105.11,258.42,83.94,279.78,84.53Z"/><path id="Path_44389" data-name="Path 44389" class="cls-6" d="M281.69,84.44c-.08.53-1.06.82-2.2.66s-2-.73-1.91-1.26,1.06-.82,2.19-.66S281.76,83.91,281.69,84.44Z"/><path id="Path_44390" data-name="Path 44390" class="cls-5" d="M256.68,100.9s-17.94.93-12.73,3.72c0,0,22.78,11.51,41.86,6.18Z"/><path id="Path_44391" data-name="Path 44391" class="cls-6" d="M243.34,103.3s-3.22,2.37,10.14,7.37a11.28,11.28,0,0,0,1.13.34c3.71.89,23.36,5.25,31.2-.21C285.81,110.8,260.52,115.22,243.34,103.3Z"/></g></svg>