<svg id="Layer_1" data-name="Layer 1" xmlns="http://www.w3.org/2000/svg" viewBox="0 0 595.28 157.14"><defs><style>.cls-1{fill:#fff;}.cls-2{fill:none;stroke:#fff;stroke-miterlimit:10;}</style></defs><path class="cls-1" d="M229.87,94.5l7.33-8.78c3.09,4.15,6.5,6.26,10.57,6.26,5.29,0,8-3.17,8-9.43V55.46h-20V44.89h33.11V81.82c0,14.07-7.08,21-20.5,21C240.77,102.8,234,99.87,229.87,94.5Z"/><path class="cls-1" d="M319.76,76.85v25H307.88V96.38c-2.36,4-6.91,6.1-13.34,6.1-10.25,0-16.35-5.7-16.35-13.26,0-7.73,5.45-13.1,18.79-13.1h10.09c0-5.45-3.25-8.62-10.09-8.62a21,21,0,0,0-12.6,4.07l-4.56-8.87c4.8-3.42,11.88-5.29,18.87-5.29C312,57.41,319.76,63.6,319.76,76.85ZM307.07,88V83.52h-8.7c-5.94,0-7.81,2.2-7.81,5.13,0,3.17,2.68,5.29,7.16,5.29C302,93.94,305.61,92,307.07,88Z"/><path class="cls-1" d="M376,76.77v25.06H363.28V78.72c0-7.07-3.25-10.33-8.87-10.33-6.1,0-10.49,3.75-10.49,11.8v21.64H331.23V41.47h12.69V62.62c3.42-3.42,8.3-5.21,13.91-5.21C368.16,57.41,376,63.43,376,76.77Z"/><path class="cls-1" d="M423.48,92.06v9.77H384.43V94.18l22.29-26.36H385V58.06h37.75v7.65L400.46,92.06Z"/><path class="cls-1" d="M473.67,83.52H440.56c1.22,5.45,5.86,8.79,12.53,8.79a14.82,14.82,0,0,0,11-4.23l6.75,7.32c-4.06,4.64-10.16,7.08-18.06,7.08-15.13,0-25-9.52-25-22.54s10-22.53,23.35-22.53c12.85,0,22.77,8.63,22.77,22.7C473.91,81.08,473.75,82.47,473.67,83.52Zm-33.27-7.4H462A10.41,10.41,0,0,0,451.22,67C445.44,67,441.3,70.51,440.4,76.12Z"/><path class="cls-1" d="M525,83.52H491.89c1.22,5.45,5.86,8.79,12.53,8.79a14.82,14.82,0,0,0,11-4.23l6.75,7.32c-4.06,4.64-10.16,7.08-18,7.08-15.13,0-25-9.52-25-22.54s10-22.53,23.35-22.53c12.85,0,22.78,8.63,22.78,22.7C525.25,81.08,525.08,82.47,525,83.52Zm-33.27-7.4h21.56A10.41,10.41,0,0,0,502.55,67C496.77,67,492.63,70.51,491.73,76.12Z"/><path class="cls-1" d="M578.45,76.77v25.06H565.76V78.72c0-7.07-3.26-10.33-8.87-10.33-6.1,0-10.49,3.75-10.49,11.8v21.64H533.71V58.06h12.12v5.13c3.41-3.74,8.54-5.78,14.48-5.78C570.64,57.41,578.45,63.43,578.45,76.77Z"/><path class="cls-1" d="M96.8,53.7a51,51,0,0,1,14.37-18.61c0-3.25,0-6.5,0-9.77H73.73v13.2H96.82C96.82,43.77,96.81,48.78,96.8,53.7Z"/><path class="cls-1" d="M176.79,107.21c-25,21.1-54.8,11.82-67.83-4.75-14.65-18.65-13.48-45.58,3-61.88,17.41-17.26,43.81-18.51,62.94-2.78,17.47,14.37,23.36,43.47,5.15,66,2,2,3.29,4.88,6.93,4.81.85,0,1.83.89,2.54,1.59q5.88,5.73,11.62,11.59c3,3.08,3,5.06.09,7.89-2.58,2.51-4.56,2.29-7.62-.79-3.72-3.73-7.57-7.34-11.13-11.21-1-1.14-1.21-3.07-2-4.51C179.39,111.2,178.12,109.34,176.79,107.21Zm10.28-34a42,42,0,0,0-42.25-42.24A42.55,42.55,0,0,0,102.51,73c-.05,23,19.19,42.49,42,42.47A42.13,42.13,0,0,0,187.07,73.16Z"/><path class="cls-1" d="M46.7,81.94H60.37c.77,8.8,3.06,16.76,12.82,19s18.81.88,24.68-9l7.39,13.44c-7.83,9.93-25.77,13.29-40,7.49A30.06,30.06,0,0,1,46.7,81.94Z"/><path class="cls-1" d="M148.46,78.71a2,2,0,0,1,1.63-.19c7,1.93,11.78,6.25,13.27,13.42.62,3,.1,6.21.1,9.33h.15c0,2.52-.11,5,0,7.55a2.94,2.94,0,0,1-2,3.16,36.68,36.68,0,0,1-12.74,3.52c-7.45.53-14.73-.11-21.63-3.35-1.68-.79-2.47-1.74-2.41-3.67.13-4.26,0-8.52,0-12.78,0-8.14,4.47-14.26,12.18-16.82"/><g id="Group_11455" data-name="Group 11455"><path id="Path_44386" data-name="Path 44386" class="cls-1" d="M132.69,59.84s-2.75-1-2.57-2.57c0,0-.54-8.69,4.68-10.81,0,0,5.81-2.51,10.93-.54"/><path id="Path_44387" data-name="Path 44387" class="cls-1" d="M146.46,63.35s8.66,1.12,9.75-.1c0,0,2-5.89.63-10.56a8,8,0,0,0-4.5-4.85c-2-.89-5.08-2.14-6.61-1.92Z"/><path id="Path_44388" data-name="Path 44388" class="cls-1" d="M145.73,45.92s4.88,1.77.73,17.43c0,0-10.32-1.87-13.77-3.51C132.69,59.84,131.29,45.53,145.73,45.92Z"/><path id="Path_44389" data-name="Path 44389" class="cls-1" d="M147,45.86c-.05.36-.71.56-1.48.45s-1.35-.49-1.3-.85.72-.56,1.49-.45S147.07,45.5,147,45.86Z"/><path id="Path_44390" data-name="Path 44390" class="cls-1" d="M130.11,57s-12.12.63-8.6,2.51c0,0,15.4,7.78,28.3,4.18Z"/><path id="Path_44391" data-name="Path 44391" class="cls-1" d="M121.1,58.61s-2.18,1.61,6.85,5a6.82,6.82,0,0,0,.77.23c2.51.61,15.79,3.55,21.09-.14C149.81,63.68,132.71,66.67,121.1,58.61Z"/></g><path class="cls-1" d="M150,64.56c-5.87,3.72-16.71,1.2-17.32,1a11.47,11.47,0,0,0,11.48,10.7,11.32,11.32,0,0,0,11.66-11.68A27.26,27.26,0,0,1,150,64.56Z"/><line class="cls-2" x1="214.66" y1="63.35" x2="214.66" y2="102.8"/></svg>